<?xml version="1.0" encoding="UTF-8" standalone="no"?>
<!-- Created with Inkscape (http://www.inkscape.org/) -->

<svg
   xmlns:dc="http://purl.org/dc/elements/1.1/"
   xmlns:cc="http://creativecommons.org/ns#"
   xmlns:rdf="http://www.w3.org/1999/02/22-rdf-syntax-ns#"
   xmlns:svg="http://www.w3.org/2000/svg"
   xmlns="http://www.w3.org/2000/svg"
   xmlns:xlink="http://www.w3.org/1999/xlink"
   xmlns:sodipodi="http://sodipodi.sourceforge.net/DTD/sodipodi-0.dtd"
   xmlns:inkscape="http://www.inkscape.org/namespaces/inkscape"
   width="36"
   height="36"
   id="svg8395"
   version="1.1"
   inkscape:version="0.48.4 r9939"
   sodipodi:docname="logo.svg">
  <defs
     id="defs8397">
    <linearGradient
       id="linearGradient3810">
      <stop
         style="stop-color:#000000;stop-opacity:1;"
         offset="0"
         id="stop3812" />
      <stop
         style="stop-color:#004455;stop-opacity:0.69230771;"
         offset="1"
         id="stop3814" />
    </linearGradient>
    <linearGradient
       id="linearGradient8972">
      <stop
         style="stop-color:#f2ff27;stop-opacity:1;"
         offset="0"
         id="stop8974" />
      <stop
         style="stop-color:#005872;stop-opacity:0;"
         offset="1"
         id="stop8976" />
    </linearGradient>
    <radialGradient
       inkscape:collect="always"
       xlink:href="#linearGradient8972"
       id="radialGradient8980"
       cx="348.17462"
       cy="440.40958"
       fx="348.17462"
       fy="440.40958"
       r="219.34901"
       gradientTransform="matrix(2.1481791,0,0,2.0062727,-5.3937014,82.05536)"
       gradientUnits="userSpaceOnUse" />
    <radialGradient
       inkscape:collect="always"
       xlink:href="#linearGradient3810"
       id="radialGradient3816"
       cx="452.54834"
       cy="751.1347"
       fx="452.54834"
       fy="751.1347"
       r="202.73254"
       gradientTransform="matrix(2.3015956,-1.1622324e-5,1.2320667e-5,2.4398902,-678.13962,-1379.9453)"
       gradientUnits="userSpaceOnUse" />
    <radialGradient
       inkscape:collect="always"
       xlink:href="#linearGradient3810-8"
       id="radialGradient3816-6"
       cx="452.54834"
       cy="751.1347"
       fx="452.54834"
       fy="751.1347"
       r="202.73254"
       gradientTransform="matrix(2.3015956,-1.1622324e-5,1.2320667e-5,2.4398902,-678.13962,-1379.9453)"
       gradientUnits="userSpaceOnUse" />
    <linearGradient
       id="linearGradient3810-8">
      <stop
         style="stop-color:#3f3355;stop-opacity:0.2923077;"
         offset="0"
         id="stop3812-9" />
      <stop
         style="stop-color:#004455;stop-opacity:0.69230771;"
         offset="1"
         id="stop3814-6" />
    </linearGradient>
    <radialGradient
       r="202.73254"
       fy="751.1347"
       fx="452.54834"
       cy="751.1347"
       cx="452.54834"
       gradientTransform="matrix(1.8841787,-9.514502e-6,1.0086194e-5,1.9973923,-497.72194,-1058.8845)"
       gradientUnits="userSpaceOnUse"
       id="radialGradient3850"
       xlink:href="#linearGradient3810-8"
       inkscape:collect="always" />
    <radialGradient
       inkscape:collect="always"
       xlink:href="#linearGradient3810-8"
       id="radialGradient4020"
       gradientUnits="userSpaceOnUse"
       gradientTransform="matrix(1.8841787,-9.514502e-6,1.0086194e-5,1.9973923,-497.72194,-1058.8845)"
       cx="452.54834"
       cy="751.1347"
       fx="452.54834"
       fy="751.1347"
       r="202.73254" />
  </defs>
  <sodipodi:namedview
     id="base"
     pagecolor="#ffffff"
     bordercolor="#666666"
     borderopacity="1.0"
     inkscape:pageopacity="0.0"
     inkscape:pageshadow="2"
     inkscape:zoom="5.6568542"
     inkscape:cx="61.496291"
     inkscape:cy="40.166094"
     inkscape:document-units="px"
     inkscape:current-layer="g8865"
     showgrid="false"
     showguides="false"
     inkscape:window-width="1680"
     inkscape:window-height="1026"
     inkscape:window-x="1366"
     inkscape:window-y="24"
     inkscape:window-maximized="1"
     inkscape:snap-to-guides="false"
     inkscape:snap-grids="true"
     inkscape:snap-smooth-nodes="false"
     inkscape:object-nodes="false"
     inkscape:snap-bbox="false"
     fit-margin-top="0"
     fit-margin-left="0"
     fit-margin-right="0"
     fit-margin-bottom="0">
    <inkscape:grid
       type="xygrid"
       id="grid8445"
       empspacing="5"
       visible="true"
       enabled="true"
       snapvisiblegridlinesonly="true"
       originx="-142.25799px"
       originy="-413.04797px" />
  </sodipodi:namedview>
  <metadata
     id="metadata8400">
    <rdf:RDF>
      <cc:Work
         rdf:about="">
        <dc:format>image/svg+xml</dc:format>
        <dc:type
           rdf:resource="http://purl.org/dc/dcmitype/StillImage" />
      </cc:Work>
    </rdf:RDF>
  </metadata>
  <g
     inkscape:groupmode="layer"
     id="layer2"
     inkscape:label="Layer"
     style="display:inline"
     transform="translate(-142.25799,-603.3142)">
    <path
       style="fill:#ffffff;fill-opacity:1"
       d="m 145.05007,625.5435 c -0.23054,-0.0729 -0.35161,-0.14878 -0.50782,-0.31825 -0.18364,-0.19922 -0.24083,-0.30987 -0.29431,-0.5694 -0.10247,-0.4972 0.17823,-1.02844 0.65925,-1.24766 0.26338,-0.12003 0.64465,-0.115 0.91638,0.0121 0.81639,0.3818 0.90865,1.47925 0.16536,1.96702 -0.29927,0.19639 -0.63516,0.25228 -0.93886,0.15623 z"
       id="path8617"
       inkscape:connector-curvature="0" />
    <path
       style="fill:#ffffff;fill-opacity:1"
       d="m 145.1178,617.11533 c -0.92146,-0.30196 -1.08671,-1.54941 -0.27168,-2.05091 0.60377,-0.3715 1.33972,-0.14006 1.63995,0.51573 0.24895,0.54378 -0.0258,1.2356 -0.58977,1.48508 -0.20609,0.0912 -0.5798,0.11521 -0.7785,0.0501 l 0,0 z"
       id="path8619"
       inkscape:connector-curvature="0" />
    <path
       style="fill:#ffffff;fill-opacity:1"
       d="m 166.17788,622.76275 c 1.5e-4,-1.02338 0.0383,-1.42388 0.17283,-1.81445 0.19326,-0.56112 0.39442,-0.81928 1.54326,-1.98067 1.05354,-1.06504 1.28214,-1.35055 1.42493,-1.77964 0.30424,-0.91425 -0.0697,-1.81083 -0.93257,-2.23617 -0.38147,-0.18805 -0.69027,-0.2512 -1.23211,-0.25197 -0.48981,-5.9e-4 -0.83861,0.0558 -1.33366,0.21597 -0.42498,0.13751 -1.23512,0.53365 -1.67189,0.81752 -0.18284,0.11883 -0.33984,0.21605 -0.3489,0.21605 -0.009,0 -0.0122,-0.38978 -0.007,-0.86618 l 0.01,-0.86618 0.5715,-0.28828 c 0.31433,-0.15855 0.7533,-0.3473 0.97548,-0.41946 1.47352,-0.47848 3.00633,-0.4562 4.09501,0.0595 0.40628,0.19246 0.5934,0.31825 0.89991,0.60498 1.0214,0.95547 1.26978,2.5759 0.57602,3.758 -0.2552,0.43483 -0.4449,0.65249 -1.52614,1.75107 -1.09449,1.11204 -1.25248,1.30794 -1.34807,1.67153 -0.0702,0.26692 -0.11644,0.94177 -0.11737,1.71198 l -5.9e-4,0.66973 -0.87511,0 -0.87511,0 1.4e-4,-0.97334 0,0 z"
       id="path8621"
       inkscape:connector-curvature="0" />
  </g>
  <g
     inkscape:groupmode="layer"
     id="layer5"
     inkscape:label="baixo"
     transform="translate(-142.25799,-603.3142)" />
  <g
     inkscape:groupmode="layer"
     id="layer3"
     inkscape:label="dado_baixo"
     style="display:inline"
     transform="translate(-142.25799,-603.3142)">
    <g
       id="g3888" />
    <g
       id="g3893" />
    <g
       id="g3903" />
  </g>
  <g
     inkscape:label="Layer 1"
     inkscape:groupmode="layer"
     id="layer1"
     style="display:inline"
     transform="translate(-142.25799,-603.3142)" />
  <g
     inkscape:groupmode="layer"
     id="layer4"
     inkscape:label="dado_cima"
     style="display:inline"
     transform="translate(-142.25799,-603.3142)">
    <g
       id="g8865"
       transform="matrix(0.09310724,0,0,0.09310724,125.43834,579.15346)">
      <g
         id="g8721"
         transform="matrix(0.9416687,0,0,0.97692277,-6.218872,-9.2073249)">
        <g
           id="g3999">
          <path
             transform="translate(56.184425,31.518658)"
             inkscape:connector-curvature="0"
             id="path3027"
             d="m 552.85985,441.42192 c 0,109.29287 -88.59936,197.89229 -197.89224,197.89229 -109.29287,0 -197.89225,-88.59942 -197.89225,-197.89229 0,-109.29286 88.59938,-197.89224 197.89225,-197.89224 109.29288,0 197.89224,88.59938 197.89224,197.89224 z"
             style="fill:url(#radialGradient4020);fill-opacity:1;stroke:none;display:inline" />
          <g
             transform="translate(56.184425,31.518658)"
             id="g3898"
             style="display:inline">
            <g
               id="g3972">
              <g
                 style="display:inline"
                 id="g8655"
                 transform="matrix(0.68515478,0.7283975,-0.7283975,0.68515478,429.22725,-7.7945177)">
                <path
                   style="fill:#ffffff;fill-opacity:1"
                   d="m 280.1875,325.40625 c -11.2984,0.19566 -22.55141,4.42455 -31.46875,12.8125 l -91.5625,86.15625 c -19.02366,17.89428 -19.95678,47.60134 -2.0625,66.625 L 241.25,582.5625 c 17.89428,19.02366 47.60134,19.95678 66.625,2.0625 L 368.0625,528 l -10.125,0 c -30.07449,0 -54.28125,-24.23801 -54.28125,-54.3125 l 0,-142.46875 c -7.26918,-3.99688 -15.37951,-5.95259 -23.46875,-5.8125 z"
                   transform="matrix(0.68515479,-0.72839751,0.72839751,0.68515479,-288.4096,317.98851)"
                   id="rect8403-5"
                   inkscape:connector-curvature="0" />
                <path
                   transform="translate(188.57769,-322.16134)"
                   style="fill:#000000;fill-opacity:1"
                   d="m 137.14286,691.64789 c 0,9.07325 -7.35532,16.42857 -16.42857,16.42857 -9.07325,0 -16.42857,-7.35532 -16.42857,-16.42857 0,-9.07325 7.35532,-16.42857 16.42857,-16.42857 9.07325,0 16.42857,7.35532 16.42857,16.42857 z"
                   id="path8443-1-6"
                   inkscape:connector-curvature="0" />
              </g>
              <path
                 inkscape:connector-curvature="0"
                 id="path8443-9"
                 d="m 191.97087,487.25809 c 0,9.07325 -7.35532,16.42857 -16.42857,16.42857 -9.07325,0 -16.42857,-7.35532 -16.42857,-16.42857 0,-9.07325 7.35532,-16.42857 16.42857,-16.42857 9.07325,0 16.42857,7.35532 16.42857,16.42857 z"
                 style="fill:#000000;fill-opacity:1;display:inline"
                 transform="matrix(0.68515478,0.7283975,-0.7283975,0.68515478,429.22725,-7.7945177)" />
              <path
                 inkscape:connector-curvature="0"
                 id="path8443-9-5"
                 d="m 206.00781,442.12301 c 3.40844,6.38412 2.27408,14.49137 -3.25,19.6875 -6.40783,6.02742 -16.35806,5.91142 -22.625,-0.125 0.66613,1.23982 1.48981,2.42605 2.5,3.5 6.21658,6.60893 16.60982,6.90408 23.21875,0.6875 6.60894,-6.21659 6.90408,-16.60981 0.6875,-23.21875 -0.17611,-0.18722 -0.34862,-0.35413 -0.53125,-0.53125 z"
                 style="fill:#4d4d4d;fill-opacity:1;display:inline" />
              <path
                 inkscape:connector-curvature="0"
                 transform="matrix(0.68515478,0.7283975,-0.7283975,0.68515478,660.80993,-57.82568)"
                 id="path8443-1-7"
                 d="m 137.14286,691.64789 c 0,9.07325 -7.35532,16.42857 -16.42857,16.42857 -9.07325,0 -16.42857,-7.35532 -16.42857,-16.42857 0,-9.07325 7.35532,-16.42857 16.42857,-16.42857 9.07325,0 16.42857,7.35532 16.42857,16.42857 z"
                 style="fill:#000000;fill-opacity:1;display:inline" />
              <path
                 inkscape:connector-curvature="0"
                 id="path8443-9-5-3"
                 d="m 251.1478,492.19391 c 3.40844,6.38412 2.27408,14.49137 -3.25,19.6875 -6.40783,6.02742 -16.35806,5.91142 -22.625,-0.125 0.66613,1.23982 1.48981,2.42605 2.5,3.5 6.21658,6.60893 16.60982,6.90408 23.21875,0.6875 6.60894,-6.21659 6.90408,-16.60981 0.6875,-23.21875 -0.17611,-0.18722 -0.34862,-0.35413 -0.53125,-0.53125 z"
                 style="fill:#4d4d4d;fill-opacity:1;display:inline" />
              <path
                 inkscape:connector-curvature="0"
                 id="path8443"
                 d="m 137.14286,691.64789 c 0,9.07325 -7.35532,16.42857 -16.42857,16.42857 -9.07325,0 -16.42857,-7.35532 -16.42857,-16.42857 0,-9.07325 7.35532,-16.42857 16.42857,-16.42857 9.07325,0 16.42857,7.35532 16.42857,16.42857 z"
                 style="fill:#000000;fill-opacity:1;display:inline"
                 transform="matrix(0.68515478,0.7283975,-0.7283975,0.68515478,701.3542,-188.69488)" />
              <path
                 inkscape:connector-curvature="0"
                 id="path8443-9-5-3-9"
                 d="m 291.69207,361.32471 c 3.40844,6.38412 2.27408,14.49137 -3.25,19.6875 -6.40783,6.02742 -16.35806,5.91142 -22.625,-0.125 0.66613,1.23982 1.48981,2.42605 2.5,3.5 6.21658,6.60893 16.60982,6.90408 23.21875,0.6875 6.60894,-6.21659 6.90408,-16.60981 0.6875,-23.21875 -0.17611,-0.18722 -0.34862,-0.35413 -0.53125,-0.53125 z"
                 style="fill:#4d4d4d;fill-opacity:1;display:inline" />
              <path
                 inkscape:connector-curvature="0"
                 id="path8443-1-6-5"
                 d="m 137.14286,691.64789 c 0,9.07325 -7.35532,16.42857 -16.42857,16.42857 -9.07325,0 -16.42857,-7.35532 -16.42857,-16.42857 0,-9.07325 7.35532,-16.42857 16.42857,-16.42857 9.07325,0 16.42857,7.35532 16.42857,16.42857 z"
                 style="fill:#000000;fill-opacity:1;display:inline"
                 transform="matrix(0.68515478,0.7283975,-0.7283975,0.68515478,705.45108,-10.367058)" />
              <path
                 inkscape:connector-curvature="0"
                 id="path8443-9-5-3-9-2"
                 d="m 295.78895,539.65253 c 3.40844,6.38412 2.27408,14.49137 -3.25,19.6875 -6.40783,6.02742 -16.35806,5.91142 -22.625,-0.125 0.66613,1.23982 1.48981,2.42605 2.5,3.5 6.21658,6.60893 16.60982,6.90408 23.21875,0.6875 6.60894,-6.21659 6.90408,-16.60981 0.6875,-23.21875 -0.17611,-0.18722 -0.34862,-0.35413 -0.53125,-0.53125 z"
                 style="fill:#4d4d4d;fill-opacity:1;display:inline" />
            </g>
          </g>
          <path
             id="rect8403-5-0"
             transform="translate(56.184425,31.518658)"
             d="m 368.46875,289.8125 c -26.11714,0 -47.125,21.00786 -47.125,47.125 l 0,125.71875 c 0,26.11714 21.00786,47.15625 47.125,47.15625 l 125.71875,0 c 26.11714,0 47.15625,-21.03911 47.15625,-47.15625 l 0,-125.71875 c 0,-26.11714 -21.03911,-47.125 -47.15625,-47.125 l -125.71875,0 z m 62.25,7.53125 c 16.42332,2e-4 29.5923,4.31096 39.5,12.96875 9.99674,8.65818 14.99987,20.08945 15,34.28125 -1.3e-4,6.78373 -1.6306,13.24761 -4.84375,19.40625 -3.21339,6.06965 -8.84192,12.94896 -16.875,20.625 l -11.78125,11.53125 c -4.1952,4.19521 -7.18368,7.49639 -8.96875,9.90625 -1.69598,2.32079 -2.87977,4.58115 -3.59375,6.8125 -0.53563,1.8745 -0.95106,4.1661 -1.21875,6.84375 -0.26785,2.67781 -0.40633,6.32743 -0.40625,10.96875 l 0,16.46875 -25.5625,0 0,-20.625 c -5e-5,-9.01494 1.25073,-16.41691 3.75,-22.21875 2.49916,-5.80165 7.77925,-12.54248 15.8125,-20.21875 L 443.5625,372.1875 c 5.0876,-4.73052 8.73721,-9.211 10.96875,-13.40625 2.3206,-4.19496 3.4999,-8.46997 3.5,-12.84375 -10e-5,-7.94377 -2.95284,-14.37191 -8.84375,-19.28125 -5.80183,-4.90899 -13.5165,-7.37482 -23.15625,-7.375 -7.05142,1.8e-4 -14.59186,1.56366 -22.625,4.6875 -7.94397,3.12419 -16.24828,7.67616 -24.90625,13.65625 l 0,-25.15625 c 8.39019,-5.08749 16.86873,-8.87559 25.4375,-11.375 8.65794,-2.49901 17.58765,-3.7498 26.78125,-3.75 z m -19.5625,169.5 27.1875,0 0,34 -27.1875,0 0,-34 z"
             style="fill:#ffffff;fill-opacity:1"
             inkscape:connector-curvature="0" />
        </g>
      </g>
    </g>
  </g>
</svg>
